<svg xmlns="http://www.w3.org/2000/svg" xmlns:xlink="http://www.w3.org/1999/xlink" width="500" zoomAndPan="magnify" viewBox="0 0 375 374.999991" height="500" preserveAspectRatio="xMidYMid meet" version="1.0"><defs><g/><clipPath id="1d936c0968"><path d="M 89 151 L 156 151 L 156 230.890625 L 89 230.890625 Z M 89 151 " clip-rule="nonzero"/></clipPath><clipPath id="273b33d93e"><path d="M 37.5 144 L 98 144 L 98 224 L 37.5 224 Z M 37.5 144 " clip-rule="nonzero"/></clipPath></defs><g clip-path="url(#1d936c0968)"><path fill="#00bf63" d="M 128.476562 206.101562 C 124.175781 217.367188 115.324219 225.011719 112.007812 227.578125 C 111.253906 224.105469 110.574219 220.613281 109.996094 217.089844 C 109.242188 212.566406 108.636719 208.039062 108.132812 203.460938 C 107.632812 198.910156 107.328125 194.308594 107.179688 189.734375 C 107.003906 185.132812 107.101562 180.554688 107.355469 175.953125 C 106.875 180.53125 106.523438 185.132812 106.472656 189.734375 C 106.398438 194.335938 106.472656 198.960938 106.726562 203.5625 C 106.976562 208.164062 107.355469 212.792969 107.882812 217.367188 C 108.285156 220.8125 108.738281 224.257812 109.316406 227.703125 C 106.449219 225.867188 99.660156 220.710938 93.5 209.597656 C 83.996094 192.523438 94.78125 174.21875 98.832031 168.082031 C 103.128906 161.546875 110.976562 151.460938 110.976562 151.460938 C 110.976562 151.460938 112.609375 157.875 122.492188 170.347656 C 132.347656 182.816406 132.800781 194.761719 128.476562 206.101562 Z M 127.597656 213.496094 C 123.347656 217.847656 121.710938 223.527344 121.234375 225.617188 C 122.996094 225.238281 124.730469 224.785156 126.464844 224.332031 C 128.703125 223.730469 130.914062 223.050781 133.105469 222.296875 C 135.316406 221.566406 137.480469 220.738281 139.617188 219.832031 C 141.753906 218.953125 143.839844 217.921875 145.902344 216.839844 C 143.890625 218.023438 141.855469 219.152344 139.765625 220.160156 C 137.65625 221.164062 135.542969 222.121094 133.355469 222.976562 C 131.191406 223.832031 128.980469 224.636719 126.765625 225.363281 C 125.105469 225.917969 123.421875 226.421875 121.710938 226.898438 C 123.144531 227.828125 126.96875 229.839844 133.378906 230.34375 C 143.238281 231.097656 149.347656 222.273438 151.308594 219.101562 C 153.394531 215.734375 156.363281 210 156.363281 210 C 156.363281 210 153.070312 210.605469 145.25 208.71875 C 137.453125 206.78125 131.871094 209.121094 127.597656 213.496094 Z M 127.597656 213.496094 " fill-opacity="1" fill-rule="nonzero"/></g><g clip-path="url(#273b33d93e)"><path fill="#ffffff" d="M 89.980469 212.164062 C 87.816406 212.816406 85.578125 213.21875 83.289062 213.472656 C 82.738281 213.519531 82.183594 213.648438 81.679688 213.847656 C 76.300781 216.238281 70.617188 216.464844 64.960938 215.859375 C 60.960938 215.433594 57.011719 214.453125 53.089844 213.472656 C 51.507812 213.070312 50.097656 212.039062 48.589844 211.332031 C 46.828125 210.527344 45.042969 209.699219 43.234375 209.046875 C 41.925781 208.566406 41.019531 207.839844 40.390625 206.582031 C 37.675781 200.921875 37.5 195.015625 38.605469 188.980469 C 39.914062 181.761719 42.929688 175.175781 46.023438 168.585938 C 48.085938 164.234375 49.945312 159.761719 51.910156 155.335938 C 54.144531 150.253906 58.394531 147.1875 62.871094 144.34375 C 63.601562 143.894531 64.882812 143.941406 65.761719 144.21875 C 68.679688 145.125 71.347656 146.582031 73.457031 148.820312 C 75.21875 150.683594 75.242188 151.914062 73.835938 154 C 72.980469 155.257812 72.152344 156.566406 71.394531 157.898438 C 70.769531 158.980469 69.886719 159.507812 68.679688 159.535156 C 66.644531 159.609375 64.582031 159.734375 62.546875 159.785156 C 59.023438 159.859375 57.414062 161.042969 56.207031 164.5625 C 57.011719 163.683594 57.765625 162.828125 58.523438 161.996094 C 58.648438 162.074219 58.773438 162.148438 58.925781 162.25 C 57.867188 165.242188 59.023438 168.109375 59.351562 171 C 60.257812 178.746094 59.777344 186.339844 56.6875 193.605469 C 55.429688 196.546875 53.792969 199.214844 51.105469 201.097656 C 53.945312 200.246094 56.03125 198.382812 57.542969 195.945312 C 60.859375 190.589844 66.015625 188.199219 71.875 186.992188 C 76.625 186.011719 81.203125 187.117188 85.679688 188.726562 C 85.730469 188.753906 85.804688 188.777344 85.855469 188.804688 C 85.730469 189.632812 85.628906 190.460938 85.554688 191.316406 C 82.207031 194.183594 78.363281 195.96875 74.164062 197.203125 C 76.550781 197.175781 78.8125 196.625 80.851562 195.464844 C 82.410156 194.5625 83.945312 193.605469 85.453125 192.625 C 85.101562 198.785156 86.183594 205.324219 89.753906 211.710938 C 89.804688 211.863281 89.902344 211.988281 89.980469 212.164062 Z M 90.609375 213.246094 C 88.773438 213.972656 86.808594 214.527344 84.773438 214.929688 C 88.820312 218.222656 93.070312 220.914062 97.625 223.050781 C 95.335938 220.4375 92.945312 217.21875 90.609375 213.246094 Z M 90.609375 213.246094 " fill-opacity="1" fill-rule="nonzero"/></g><g fill="#ffffff" fill-opacity="1"><g transform="translate(169.271302, 192.467961)"><g><path d="M 7.421875 -17.28125 L 7.421875 -11.671875 L 17.25 -11.671875 L 17.25 -7.734375 L 7.421875 -7.734375 L 7.421875 0 L 2.515625 0 L 2.515625 -21.21875 L 18.546875 -21.21875 L 18.546875 -17.28125 Z M 7.421875 -17.28125 "/></g></g></g><g fill="#ffffff" fill-opacity="1"><g transform="translate(190.45517, 192.467961)"><g><path d="M 2.515625 -21.21875 L 7.421875 -21.21875 L 7.421875 0 L 2.515625 0 Z M 2.515625 -21.21875 "/></g></g></g><g fill="#ffffff" fill-opacity="1"><g transform="translate(202.214291, 192.467961)"><g><path d="M 6.90625 -17.21875 L 0.125 -17.21875 L 0.125 -21.21875 L 18.609375 -21.21875 L 18.609375 -17.21875 L 11.828125 -17.21875 L 11.828125 0 L 6.90625 0 Z M 6.90625 -17.21875 "/></g></g></g><g fill="#ffffff" fill-opacity="1"><g transform="translate(222.761762, 192.467961)"><g/></g></g><g fill="#ffffff" fill-opacity="1"><g transform="translate(233.157168, 192.467961)"><g><path d="M 2.515625 -21.21875 L 7.421875 -21.21875 L 7.421875 -4 L 18.0625 -4 L 18.0625 0 L 2.515625 0 Z M 2.515625 -21.21875 "/></g></g></g><g fill="#ffffff" fill-opacity="1"><g transform="translate(253.280371, 192.467961)"><g><path d="M 2.515625 -21.21875 L 7.421875 -21.21875 L 7.421875 0 L 2.515625 0 Z M 2.515625 -21.21875 "/></g></g></g><g fill="#ffffff" fill-opacity="1"><g transform="translate(265.03949, 192.467961)"><g><path d="M 7.421875 -17.28125 L 7.421875 -11.671875 L 17.25 -11.671875 L 17.25 -7.734375 L 7.421875 -7.734375 L 7.421875 0 L 2.515625 0 L 2.515625 -21.21875 L 18.546875 -21.21875 L 18.546875 -17.28125 Z M 7.421875 -17.28125 "/></g></g></g><g fill="#ffffff" fill-opacity="1"><g transform="translate(286.223354, 192.467961)"><g><path d="M 18.953125 -3.9375 L 18.953125 0 L 2.515625 0 L 2.515625 -21.21875 L 18.546875 -21.21875 L 18.546875 -17.28125 L 7.390625 -17.28125 L 7.390625 -12.671875 L 17.25 -12.671875 L 17.25 -8.84375 L 7.390625 -8.84375 L 7.390625 -3.9375 Z M 18.953125 -3.9375 "/></g></g></g><g fill="#ffffff" fill-opacity="1"><g transform="translate(169.271302, 207.642317)"><g><path d="M 5.75 -5.765625 L 5.75 0 L 5.15625 0 L 5.15625 -2.65625 L 1.546875 -2.65625 L 1.546875 0 L 0.9375 0 L 0.9375 -5.765625 L 1.546875 -5.765625 L 1.546875 -3.1875 L 5.15625 -3.1875 L 5.15625 -5.765625 Z M 5.75 -5.765625 "/></g></g></g><g fill="#ffffff" fill-opacity="1"><g transform="translate(181.212027, 207.642317)"><g><path d="M 5.015625 -0.53125 L 5.015625 0 L 0.9375 0 L 0.9375 -5.765625 L 4.890625 -5.765625 L 4.890625 -5.234375 L 1.546875 -5.234375 L 1.546875 -3.1875 L 4.53125 -3.1875 L 4.53125 -2.671875 L 1.546875 -2.671875 L 1.546875 -0.53125 Z M 5.015625 -0.53125 "/></g></g></g><g fill="#ffffff" fill-opacity="1"><g transform="translate(191.96691, 207.642317)"><g><path d="M 4.546875 -1.546875 L 1.34375 -1.546875 L 0.65625 0 L 0.015625 0 L 2.65625 -5.765625 L 3.25 -5.765625 L 5.890625 0 L 5.25 0 Z M 4.328125 -2.03125 L 2.953125 -5.125 L 1.5625 -2.03125 Z M 4.328125 -2.03125 "/></g></g></g><g fill="#ffffff" fill-opacity="1"><g transform="translate(203.117074, 207.642317)"><g><path d="M 0.9375 -5.765625 L 1.546875 -5.765625 L 1.546875 -0.53125 L 4.78125 -0.53125 L 4.78125 0 L 0.9375 0 Z M 0.9375 -5.765625 "/></g></g></g><g fill="#ffffff" fill-opacity="1"><g transform="translate(213.213158, 207.642317)"><g><path d="M 2.0625 -5.234375 L 0.03125 -5.234375 L 0.03125 -5.765625 L 4.6875 -5.765625 L 4.6875 -5.234375 L 2.671875 -5.234375 L 2.671875 0 L 2.0625 0 Z M 2.0625 -5.234375 "/></g></g></g><g fill="#ffffff" fill-opacity="1"><g transform="translate(223.185709, 207.642317)"><g><path d="M 5.75 -5.765625 L 5.75 0 L 5.15625 0 L 5.15625 -2.65625 L 1.546875 -2.65625 L 1.546875 0 L 0.9375 0 L 0.9375 -5.765625 L 1.546875 -5.765625 L 1.546875 -3.1875 L 5.15625 -3.1875 L 5.15625 -5.765625 Z M 5.75 -5.765625 "/></g></g></g><g fill="#ffffff" fill-opacity="1"><g transform="translate(235.12643, 207.642317)"><g><path d="M 2.921875 -2 L 2.921875 0 L 2.3125 0 L 2.3125 -2 L 0.015625 -5.765625 L 0.65625 -5.765625 L 2.640625 -2.53125 L 4.609375 -5.765625 L 5.21875 -5.765625 Z M 2.921875 -2 "/></g></g></g><g fill="#ffffff" fill-opacity="1"><g transform="translate(245.60132, 207.642317)"><g/></g></g><g fill="#ffffff" fill-opacity="1"><g transform="translate(253.004555, 207.642317)"><g><path d="M 8.859375 -5.765625 L 6.90625 0 L 6.265625 0 L 4.578125 -4.921875 L 2.875 0 L 2.25 0 L 0.296875 -5.765625 L 0.9375 -5.765625 L 2.59375 -0.8125 L 4.3125 -5.765625 L 4.890625 -5.765625 L 6.578125 -0.78125 L 8.265625 -5.765625 Z M 8.859375 -5.765625 "/></g></g></g><g fill="#ffffff" fill-opacity="1"><g transform="translate(267.399304, 207.642317)"><g><path d="M 3.453125 0.046875 C 2.890625 0.046875 2.375 -0.078125 1.90625 -0.328125 C 1.4375 -0.585938 1.070312 -0.9375 0.8125 -1.375 C 0.550781 -1.820312 0.421875 -2.320312 0.421875 -2.875 C 0.421875 -3.4375 0.550781 -3.9375 0.8125 -4.375 C 1.070312 -4.820312 1.4375 -5.171875 1.90625 -5.421875 C 2.375 -5.679688 2.890625 -5.8125 3.453125 -5.8125 C 4.023438 -5.8125 4.539062 -5.6875 5 -5.4375 C 5.457031 -5.1875 5.816406 -4.835938 6.078125 -4.390625 C 6.347656 -3.941406 6.484375 -3.4375 6.484375 -2.875 C 6.484375 -2.320312 6.347656 -1.820312 6.078125 -1.375 C 5.816406 -0.925781 5.457031 -0.578125 5 -0.328125 C 4.539062 -0.078125 4.023438 0.046875 3.453125 0.046875 Z M 3.453125 -0.5 C 3.910156 -0.5 4.320312 -0.597656 4.6875 -0.796875 C 5.0625 -1.003906 5.351562 -1.289062 5.5625 -1.65625 C 5.769531 -2.019531 5.875 -2.425781 5.875 -2.875 C 5.875 -3.332031 5.769531 -3.742188 5.5625 -4.109375 C 5.351562 -4.472656 5.0625 -4.753906 4.6875 -4.953125 C 4.320312 -5.160156 3.910156 -5.265625 3.453125 -5.265625 C 3.003906 -5.265625 2.59375 -5.160156 2.21875 -4.953125 C 1.84375 -4.753906 1.550781 -4.472656 1.34375 -4.109375 C 1.132812 -3.742188 1.03125 -3.332031 1.03125 -2.875 C 1.03125 -2.425781 1.132812 -2.019531 1.34375 -1.65625 C 1.550781 -1.289062 1.84375 -1.003906 2.21875 -0.796875 C 2.59375 -0.597656 3.003906 -0.5 3.453125 -0.5 Z M 3.453125 -0.5 "/></g></g></g><g fill="#ffffff" fill-opacity="1"><g transform="translate(279.554132, 207.642317)"><g><path d="M 4.875 0 L 3.5625 -1.859375 C 3.40625 -1.835938 3.25 -1.828125 3.09375 -1.828125 L 1.546875 -1.828125 L 1.546875 0 L 0.9375 0 L 0.9375 -5.765625 L 3.09375 -5.765625 C 3.832031 -5.765625 4.410156 -5.585938 4.828125 -5.234375 C 5.242188 -4.878906 5.453125 -4.394531 5.453125 -3.78125 C 5.453125 -3.332031 5.335938 -2.953125 5.109375 -2.640625 C 4.878906 -2.335938 4.554688 -2.113281 4.140625 -1.96875 L 5.546875 0 Z M 3.078125 -2.34375 C 3.648438 -2.34375 4.085938 -2.46875 4.390625 -2.71875 C 4.691406 -2.976562 4.84375 -3.332031 4.84375 -3.78125 C 4.84375 -4.25 4.691406 -4.609375 4.390625 -4.859375 C 4.085938 -5.109375 3.648438 -5.234375 3.078125 -5.234375 L 1.546875 -5.234375 L 1.546875 -2.34375 Z M 3.078125 -2.34375 "/></g></g></g><g fill="#ffffff" fill-opacity="1"><g transform="translate(290.753697, 207.642317)"><g><path d="M 2.71875 -2.703125 L 1.546875 -1.515625 L 1.546875 0 L 0.9375 0 L 0.9375 -5.765625 L 1.546875 -5.765625 L 1.546875 -2.28125 L 4.9375 -5.765625 L 5.625 -5.765625 L 3.140625 -3.15625 L 5.8125 0 L 5.078125 0 Z M 2.71875 -2.703125 "/></g></g></g><g fill="#ffffff" fill-opacity="1"><g transform="translate(301.854444, 207.642317)"><g><path d="M 3.453125 0.046875 C 2.890625 0.046875 2.375 -0.078125 1.90625 -0.328125 C 1.4375 -0.585938 1.070312 -0.9375 0.8125 -1.375 C 0.550781 -1.820312 0.421875 -2.320312 0.421875 -2.875 C 0.421875 -3.4375 0.550781 -3.9375 0.8125 -4.375 C 1.070312 -4.820312 1.4375 -5.171875 1.90625 -5.421875 C 2.375 -5.679688 2.890625 -5.8125 3.453125 -5.8125 C 4.023438 -5.8125 4.539062 -5.6875 5 -5.4375 C 5.457031 -5.1875 5.816406 -4.835938 6.078125 -4.390625 C 6.347656 -3.941406 6.484375 -3.4375 6.484375 -2.875 C 6.484375 -2.320312 6.347656 -1.820312 6.078125 -1.375 C 5.816406 -0.925781 5.457031 -0.578125 5 -0.328125 C 4.539062 -0.078125 4.023438 0.046875 3.453125 0.046875 Z M 3.453125 -0.5 C 3.910156 -0.5 4.320312 -0.597656 4.6875 -0.796875 C 5.0625 -1.003906 5.351562 -1.289062 5.5625 -1.65625 C 5.769531 -2.019531 5.875 -2.425781 5.875 -2.875 C 5.875 -3.332031 5.769531 -3.742188 5.5625 -4.109375 C 5.351562 -4.472656 5.0625 -4.753906 4.6875 -4.953125 C 4.320312 -5.160156 3.910156 -5.265625 3.453125 -5.265625 C 3.003906 -5.265625 2.59375 -5.160156 2.21875 -4.953125 C 1.84375 -4.753906 1.550781 -4.472656 1.34375 -4.109375 C 1.132812 -3.742188 1.03125 -3.332031 1.03125 -2.875 C 1.03125 -2.425781 1.132812 -2.019531 1.34375 -1.65625 C 1.550781 -1.289062 1.84375 -1.003906 2.21875 -0.796875 C 2.59375 -0.597656 3.003906 -0.5 3.453125 -0.5 Z M 3.453125 -0.5 "/></g></g></g><g fill="#ffffff" fill-opacity="1"><g transform="translate(314.009272, 207.642317)"><g><path d="M 3.265625 0.046875 C 2.515625 0.046875 1.929688 -0.164062 1.515625 -0.59375 C 1.097656 -1.019531 0.890625 -1.644531 0.890625 -2.46875 L 0.890625 -5.765625 L 1.5 -5.765625 L 1.5 -2.484375 C 1.5 -1.816406 1.648438 -1.316406 1.953125 -0.984375 C 2.253906 -0.660156 2.691406 -0.5 3.265625 -0.5 C 3.835938 -0.5 4.273438 -0.660156 4.578125 -0.984375 C 4.878906 -1.316406 5.03125 -1.816406 5.03125 -2.484375 L 5.03125 -5.765625 L 5.625 -5.765625 L 5.625 -2.46875 C 5.625 -1.644531 5.414062 -1.019531 5 -0.59375 C 4.582031 -0.164062 4.003906 0.046875 3.265625 0.046875 Z M 3.265625 0.046875 "/></g></g></g><g fill="#ffffff" fill-opacity="1"><g transform="translate(325.777061, 207.642317)"><g><path d="M 2.0625 -5.234375 L 0.03125 -5.234375 L 0.03125 -5.765625 L 4.6875 -5.765625 L 4.6875 -5.234375 L 2.671875 -5.234375 L 2.671875 0 L 2.0625 0 Z M 2.0625 -5.234375 "/></g></g></g></svg>